<?xml version="1.0" standalone="no"?>
<!DOCTYPE svg PUBLIC "-//W3C//DTD SVG 20010904//EN"
 "http://www.w3.org/TR/2001/REC-SVG-20010904/DTD/svg10.dtd">
<svg version="1.0" xmlns="http://www.w3.org/2000/svg"
 width="1024.000000pt" height="1024.000000pt" viewBox="0 0 1024.000000 1024.000000"
 preserveAspectRatio="xMidYMid meet">

<g transform="translate(0.000000,1024.000000) scale(0.100000,-0.100000)"
fill="#000000" stroke="none">
<path d="M0 5120 l0 -5120 5120 0 5120 0 0 5120 0 5120 -5120 0 -5120 0 0
-5120z m5675 4440 c248 -28 385 -54 655 -126 471 -124 847 -292 1275 -569 80
-52 393 -281 421 -309 6 -6 39 -36 75 -66 172 -149 208 -183 344 -335 64 -71
162 -191 218 -265 55 -74 113 -151 127 -170 15 -19 51 -75 81 -123 30 -48 70
-114 89 -145 288 -465 505 -1085 586 -1677 66 -486 68 -826 8 -1275 -58 -435
-147 -748 -345 -1220 -35 -82 -169 -344 -224 -435 -74 -124 -233 -361 -287
-429 -165 -207 -217 -266 -413 -461 -193 -193 -222 -218 -445 -378 -345 -247
-648 -422 -938 -541 -415 -171 -876 -289 -1327 -338 -158 -17 -708 -17 -875 0
-662 69 -1312 271 -1795 557 -396 236 -682 443 -934 680 -113 106 -133 127
-275 300 -189 229 -311 398 -396 545 -23 41 -62 107 -85 145 -57 95 -150 272
-174 332 -10 26 -38 93 -61 148 -85 204 -191 539 -231 734 -32 157 -79 458
-94 606 -17 163 -19 522 -5 680 62 672 224 1271 481 1770 74 144 326 546 425
677 273 362 536 612 975 926 255 182 672 397 999 515 137 49 383 123 525 157
196 48 580 101 820 114 177 9 625 -4 800 -24z"/>
<path d="M4594 8972 c-55 -19 -148 -83 -158 -108 -9 -23 -7 -52 4 -59 14 -9
66 16 166 81 50 32 109 69 130 81 l39 22 -65 0 c-36 0 -87 -7 -116 -17z"/>
<path d="M4988 8901 c3 -51 -1 -68 -25 -113 -55 -101 -238 -276 -488 -465 -66
-50 -183 -143 -260 -207 -272 -225 -431 -353 -500 -401 -38 -26 -92 -65 -120
-85 -66 -49 -98 -57 -125 -30 -18 18 -20 28 -13 68 19 110 1 186 -63 261 -38
45 -75 61 -142 61 -71 0 -102 -20 -126 -81 -22 -54 -14 -109 28 -185 38 -68
65 -91 129 -107 l47 -12 -122 -70 c-152 -88 -202 -108 -245 -100 -62 11 -133
97 -133 161 0 37 57 108 185 233 58 57 104 105 102 107 -1 2 -37 -26 -78 -63
-89 -79 -126 -103 -158 -103 -23 0 -24 -1 -7 -13 17 -13 16 -15 -14 -40 l-32
-27 -191 0 c-199 0 -697 15 -849 25 l-86 6 -42 -62 c-22 -34 -47 -74 -55 -89
-13 -26 -13 -28 8 -28 12 0 49 -5 82 -10 33 -6 91 -14 128 -18 68 -6 68 -7 84
-45 17 -45 30 -47 84 -17 38 21 39 21 110 4 56 -13 177 -28 297 -36 1 0 2 -16
2 -35 0 -38 14 -44 46 -20 45 34 138 6 149 -44 8 -38 18 -39 42 -6 l18 25 95
-24 c110 -28 120 -42 70 -95 -25 -27 -30 -41 -30 -81 0 -40 5 -54 31 -81 28
-30 30 -34 14 -44 -10 -5 -63 -39 -119 -74 -311 -196 -939 -500 -1032 -501
-50 0 -63 55 -16 66 45 10 169 85 182 110 13 24 8 54 -9 54 -6 0 -8 -7 -5 -15
10 -25 -36 -34 -241 -50 -107 -8 -231 -22 -277 -30 -46 -8 -86 -15 -90 -15 -5
0 -8 -14 -8 -30 0 -40 27 -50 129 -50 43 0 112 -3 153 -6 74 -7 75 -7 87 -40
17 -48 59 -59 156 -43 64 11 90 11 182 -4 124 -20 184 -21 232 -3 40 14 64 46
42 54 -28 10 -91 75 -91 94 0 15 43 40 206 120 246 119 362 184 489 272 51 36
120 78 153 95 34 17 73 47 90 69 17 21 65 60 108 86 62 38 82 46 105 41 68
-15 79 -69 22 -106 -84 -54 -69 -178 23 -195 84 -16 161 30 171 101 6 45 -21
89 -64 106 -16 6 -23 15 -21 27 6 29 124 16 130 -16 2 -13 13 -17 43 -17 22
-1 75 -7 117 -15 70 -12 81 -12 112 3 49 23 73 61 59 96 -9 25 -7 30 26 51
135 87 207 140 233 169 28 32 30 38 26 100 -7 119 -63 190 -158 199 -49 4 -52
3 -96 -41 -41 -42 -45 -49 -39 -79 21 -99 76 -173 136 -187 59 -13 63 0 10 30
-84 48 -132 143 -105 207 39 94 147 72 200 -42 23 -50 30 -108 18 -141 -7 -18
-167 -140 -225 -171 -26 -15 -54 -19 -121 -18 -83 0 -90 2 -118 29 -43 42 -41
87 7 151 21 27 50 60 65 72 33 28 35 46 8 65 -20 14 -19 16 32 62 29 26 116
95 193 153 77 58 167 128 200 156 33 28 122 103 198 165 l139 114 23 -25 c38
-42 46 -63 30 -84 -8 -11 -15 -36 -15 -58 0 -32 6 -45 36 -72 40 -38 72 -43
132 -19 64 26 89 93 57 155 -15 30 -61 60 -89 60 -14 0 -27 32 -42 106 -5 28
-1 34 53 74 87 65 283 268 323 335 28 47 35 71 38 125 4 58 1 70 -19 94 l-24
27 3 -60z m-403 -810 c-3 -5 -1 -12 5 -16 5 -3 10 -12 10 -18 0 -7 -7 -3 -15
7 -18 23 -19 36 -4 36 5 0 8 -4 4 -9z m-1257 -148 c57 -30 97 -102 97 -176 0
-54 -3 -61 -34 -89 -29 -26 -39 -30 -74 -25 -95 13 -162 97 -162 205 0 58 3
66 29 89 34 29 81 28 144 -4z m347 -403 c-19 -21 -73 -45 -81 -37 -9 9 5 26
49 58 35 26 43 28 45 14 2 -9 -4 -25 -13 -35z m-765 -367 c0 -20 -28 -53 -47
-53 -20 0 -15 31 9 51 26 23 38 24 38 2z m410 -168 c-7 -8 -16 -12 -21 -9 -13
8 -11 44 2 44 6 0 8 -7 5 -16 -3 -8 -2 -12 4 -9 6 3 11 14 11 23 1 15 2 15 6
-1 3 -10 -1 -24 -7 -32z"/>
<path d="M3209 7906 c-15 -31 -4 -103 20 -140 26 -39 70 -66 109 -66 27 0 35
6 49 35 22 47 5 103 -48 156 -32 32 -46 39 -79 39 -33 0 -42 -4 -51 -24z"/>
<path d="M4191 8756 c-9 -10 -4 -34 20 -102 l31 -89 -42 -37 c-23 -21 -45 -38
-49 -38 -9 0 -39 79 -46 121 -6 31 -2 42 27 75 27 31 28 35 8 21 -14 -10 -37
-23 -52 -30 -16 -6 -28 -14 -28 -17 0 -14 49 -170 60 -189 6 -12 15 -21 21
-21 15 0 138 94 138 106 1 7 -10 36 -23 65 -14 30 -28 75 -31 102 -8 49 -15
56 -34 33z"/>
<path d="M6462 8718 c6 -18 25 -21 25 -3 0 8 -7 15 -14 15 -8 0 -13 -5 -11
-12z"/>
<path d="M6972 8678 c-7 -7 -12 -21 -12 -31 0 -17 5 -19 32 -13 35 7 70 34 62
47 -8 13 -68 11 -82 -3z"/>
<path d="M7105 8604 c-11 -8 -83 -49 -160 -91 -144 -79 -175 -99 -175 -116 0
-6 8 -3 18 5 9 8 67 41 127 73 133 70 174 96 199 124 22 25 19 27 -9 5z"/>
<path d="M2826 8525 c-20 -21 -21 -81 -1 -89 24 -9 46 23 43 62 -3 41 -18 50
-42 27z"/>
<path d="M3430 8520 c-6 -12 -10 -33 -8 -48 2 -21 8 -27 28 -27 19 0 26 6 28
24 9 59 -25 94 -48 51z"/>
<path d="M3947 8504 c-22 -22 10 -78 39 -67 24 9 14 67 -11 71 -12 2 -24 0
-28 -4z"/>
<path d="M6376 8455 c4 -8 11 -15 16 -15 6 0 5 6 -2 15 -7 8 -14 15 -16 15 -2
0 -1 -7 2 -15z"/>
<path d="M3852 8423 c-10 -19 1 -63 16 -63 5 0 17 9 28 21 14 15 16 24 8 37
-16 24 -41 26 -52 5z"/>
<path d="M3760 8340 c-8 -14 -8 -26 0 -40 19 -35 58 0 45 41 -8 25 -32 24 -45
-1z"/>
<path d="M3670 8265 c-14 -17 -7 -43 15 -52 24 -8 39 12 31 41 -7 29 -27 34
-46 11z"/>
<path d="M6382 8218 c-151 -75 -125 -75 40 1 54 24 64 26 71 9 3 -7 6 -1 6 15
1 15 -2 27 -6 26 -5 0 -54 -23 -111 -51z"/>
<path d="M3581 8197 c-16 -16 -14 -42 5 -57 21 -18 46 6 38 37 -7 26 -27 36
-43 20z"/>
<path d="M5880 8144 c0 -5 7 -18 15 -28 12 -16 15 -17 15 -4 0 8 -7 21 -15 28
-8 7 -15 9 -15 4z"/>
<path d="M6185 8126 c-27 -14 -47 -25 -43 -25 10 -1 98 38 98 44 0 7 0 7 -55
-19z"/>
<path d="M3480 8109 c-9 -15 -8 -24 1 -35 28 -34 70 -3 49 37 -14 25 -36 24
-50 -2z"/>
<path d="M7120 8029 l0 -71 27 7 c41 10 53 24 53 62 0 50 -16 73 -50 73 l-30
0 0 -71z"/>
<path d="M7854 8074 c-21 -31 -10 -90 19 -108 15 -9 22 -7 38 13 23 28 25 69
3 99 -20 29 -40 28 -60 -4z"/>
<path d="M5940 8060 c0 -5 5 -10 11 -10 5 0 7 5 4 10 -3 6 -8 10 -11 10 -2 0
-4 -4 -4 -10z"/>
<path d="M3393 8034 c-8 -21 8 -48 31 -52 14 -3 17 3 14 30 -3 36 -33 52 -45
22z"/>
<path d="M5040 7928 c1 -78 58 -210 118 -274 41 -44 130 -108 202 -144 25 -13
39 -25 32 -28 -11 -3 -137 16 -217 33 -11 3 -4 -3 15 -12 26 -12 30 -18 18
-20 -10 -3 -59 14 -110 36 -51 22 -128 50 -171 61 -74 19 -138 49 -284 133
-77 44 -103 53 -103 35 0 -52 195 -194 304 -221 52 -13 156 -60 156 -71 0 -1
-32 0 -72 2 -136 8 -287 -22 -429 -86 -129 -58 -361 -223 -453 -323 -63 -68
-148 -193 -202 -299 -42 -80 -103 -147 -180 -198 -38 -26 -58 -32 -98 -32 -74
1 -121 43 -58 53 22 3 20 4 -10 6 -23 0 -48 10 -66 26 -41 34 -53 32 -46 -7
12 -66 91 -155 157 -179 l35 -12 -25 -56 c-63 -142 -87 -339 -59 -476 9 -44
21 -125 27 -180 11 -111 45 -225 85 -284 l26 -39 36 24 c19 14 39 21 42 17 4
-5 18 -40 30 -80 l23 -72 -31 -26 c-69 -58 -83 -220 -27 -323 28 -52 101 -112
155 -127 34 -10 40 -22 40 -76 0 -63 36 -296 61 -394 44 -171 118 -326 214
-445 28 -36 57 -74 63 -86 12 -22 18 -134 14 -261 -2 -81 -3 -83 -29 -89 -62
-15 -195 -96 -314 -190 -146 -116 -345 -367 -398 -502 -31 -79 -60 -132 -72
-132 -6 0 -119 -51 -252 -113 -133 -63 -255 -119 -272 -126 -39 -15 -159 -17
-210 -3 -55 15 -151 74 -202 124 -120 117 -178 338 -154 586 6 66 11 127 11
135 0 9 14 17 38 22 63 12 142 82 190 170 23 43 27 62 27 131 0 75 -3 88 -38
153 -36 71 -37 74 -37 184 0 195 -45 320 -154 430 -132 134 -250 186 -443 195
-102 4 -120 2 -200 -23 -153 -48 -262 -127 -350 -255 -61 -90 -89 -216 -80
-366 l7 -104 -33 -53 c-30 -49 -32 -58 -32 -142 0 -78 4 -98 28 -150 16 -33
40 -73 55 -88 36 -38 118 -84 164 -92 23 -4 40 -14 43 -25 10 -31 41 -50 92
-56 43 -6 52 -3 82 22 60 50 63 65 62 389 0 161 -5 304 -10 318 -16 41 -62 67
-122 67 -49 0 -55 -3 -96 -45 -23 -25 -48 -45 -55 -45 -7 -1 -30 -7 -50 -14
-38 -14 -38 -14 -38 13 0 54 28 131 74 204 114 184 326 271 554 227 183 -34
333 -186 396 -399 l16 -53 -23 6 c-12 3 -38 6 -58 6 -32 0 -37 3 -42 30 -13
63 -118 91 -185 50 -59 -36 -62 -56 -62 -385 0 -234 3 -302 14 -323 40 -77
117 -92 192 -37 21 16 22 16 12 -32 -5 -27 -7 -114 -3 -198 11 -279 67 -415
220 -530 48 -37 146 -83 200 -94 28 -6 61 -14 74 -17 20 -4 -11 -23 -163 -100
-198 -99 -376 -208 -376 -229 0 -7 36 -39 80 -71 44 -32 111 -83 148 -112 69
-55 362 -252 467 -314 432 -255 751 -380 1257 -493 226 -50 328 -64 328 -45 0
11 -180 468 -212 540 -12 25 -29 68 -38 95 -10 28 -33 88 -53 135 -42 101
-109 327 -137 460 -10 52 -25 158 -31 235 -11 120 -10 158 4 270 9 72 24 157
32 190 19 72 63 171 72 162 3 -4 23 34 44 84 40 98 63 131 85 122 8 -3 14 1
14 8 2 126 14 307 22 317 14 16 33 15 48 -2 9 -11 28 -96 40 -173 1 -8 119
-143 149 -171 48 -44 164 -120 227 -148 29 -12 96 -35 150 -50 88 -24 110 -26
214 -21 161 7 255 41 420 150 96 64 226 190 239 231 5 17 15 57 21 88 11 54
41 108 61 108 5 0 9 -28 9 -62 0 -35 3 -107 7 -160 5 -80 9 -98 22 -98 18 0
62 -73 81 -135 7 -22 30 -78 52 -125 22 -47 54 -137 70 -200 27 -104 30 -130
30 -270 0 -85 -5 -180 -11 -210 -6 -30 -16 -84 -21 -120 -31 -193 -113 -446
-245 -755 -52 -124 -195 -492 -195 -504 0 -16 245 30 505 96 496 125 894 305
1340 607 103 69 254 181 305 225 30 26 32 30 15 31 -11 0 -38 12 -60 27 -92
63 -812 430 -908 462 -52 18 -52 18 -69 79 -9 34 -15 62 -13 62 2 0 153 -72
440 -211 44 -21 107 -53 140 -72 33 -18 114 -61 180 -96 223 -117 322 -180
334 -212 5 -16 11 -13 49 18 33 27 40 38 31 49 -21 26 -206 133 -404 234 -110
56 -207 108 -215 116 -18 17 -50 16 544 16 l450 -1 39 42 c75 81 267 337 331
440 88 144 242 445 261 511 13 45 15 106 13 369 l-3 315 -25 27 c-55 59 -1 56
-971 50 -972 -6 -936 -4 -971 -63 -8 -15 -19 -48 -22 -73 -4 -26 -7 -365 -7
-753 0 -388 -2 -706 -5 -706 -2 0 -39 17 -82 39 -42 21 -93 43 -112 50 -31 10
-40 21 -81 109 -105 220 -304 471 -464 584 -56 39 -177 105 -242 131 l-43 17
0 154 0 154 69 89 c38 50 89 128 114 174 61 114 122 300 141 432 18 119 28
147 54 147 20 0 95 33 118 52 36 30 104 99 124 128 37 52 11 55 -38 3 -45 -47
-64 -60 -149 -104 -24 -13 -43 -26 -43 -31 0 -4 -7 -8 -15 -8 -22 0 -17 129 5
141 8 4 41 19 72 34 103 47 155 149 146 283 -6 77 -16 99 -64 130 -22 14 -32
27 -27 35 4 7 0 7 -10 -2 -16 -12 -17 -12 -11 5 3 10 17 43 30 72 13 29 24 57
24 62 0 15 7 12 48 -15 l37 -25 22 45 c13 24 27 68 31 97 8 52 8 53 40 50 37
-2 37 -3 17 62 -8 27 -15 83 -15 125 0 64 4 80 25 111 38 54 42 195 16 465
-25 263 -47 329 -156 472 -30 40 -55 76 -55 80 0 5 20 21 45 37 85 53 145 147
145 226 0 40 -32 120 -49 120 -4 0 -14 -19 -21 -42 -17 -56 -43 -84 -94 -103
-45 -17 -172 -35 -196 -28 -10 3 -8 -1 4 -11 13 -11 40 -16 82 -16 52 0 74 6
128 34 36 19 66 30 66 25 0 -19 -77 -93 -115 -110 -63 -29 -116 -23 -270 29
-136 46 -140 48 -143 77 -6 63 -34 169 -55 210 -42 83 -128 175 -219 235 -87
58 -153 87 -303 133 -84 27 -155 32 -132 10 12 -11 108 -52 232 -98 146 -54
267 -150 319 -254 35 -68 32 -74 -12 -25 -80 90 -171 143 -367 217 -167 62
-224 89 -292 135 -80 54 -125 107 -173 202 -40 79 -70 104 -70 58z m1380
-1046 c40 -15 132 -121 172 -198 41 -79 78 -191 78 -238 0 -26 -8 -15 -45 63
-82 170 -181 300 -290 378 l-30 21 45 -8 c25 -5 56 -13 70 -18z m-420 -559
c29 -108 48 -163 58 -165 23 -5 163 -406 167 -478 0 -14 6 -35 13 -47 7 -12
12 -25 12 -29 0 -4 -33 -4 -72 -1 -72 6 -180 36 -179 50 2 20 -1 24 -31 34
-124 43 -353 42 -533 -4 -77 -19 -98 -37 -91 -78 5 -26 1 -36 -26 -62 l-33
-31 -157 1 -157 1 -43 34 c-37 29 -43 39 -43 70 0 45 -15 53 -135 79 -111 23
-375 25 -435 2 -28 -10 -39 -20 -37 -32 5 -28 -86 -54 -219 -62 l-80 -5 7 37
c16 92 55 215 93 293 11 24 21 50 21 57 0 19 33 83 42 83 5 0 7 4 4 9 -3 4 0
15 7 24 11 14 14 14 31 2 16 -12 17 -17 7 -28 -10 -10 -12 -9 -9 2 2 7 -3 16
-11 19 -10 3 -13 -1 -8 -17 3 -12 0 -21 -6 -21 -16 0 -51 -74 -44 -92 3 -7 6
-4 6 8 1 12 8 24 15 27 11 4 13 1 9 -11 -6 -14 -5 -15 9 -2 8 8 14 20 11 26
-5 14 35 54 53 54 7 0 14 3 17 8 2 4 2 1 1 -5 -2 -7 5 -13 16 -13 22 0 35 16
20 25 -14 8 -13 25 2 25 6 0 8 -3 5 -7 -9 -9 52 -35 64 -27 16 9 10 26 -8 22
-10 -2 -29 6 -42 19 -19 19 -5 15 85 -22 231 -94 395 -119 629 -97 133 13 348
76 445 130 36 20 68 37 72 37 3 0 59 44 123 98 64 54 111 89 105 78 -8 -16 -8
-19 3 -16 19 8 16 -46 -5 -70 -9 -11 -29 -35 -43 -53 -26 -31 -156 -122 -175
-122 -6 0 -10 -4 -10 -10 0 -5 -4 -10 -9 -10 -18 0 -104 -41 -98 -46 3 -3 41
6 85 20 44 15 83 26 88 24 5 -1 20 2 33 6 18 6 21 10 10 17 -12 7 -11 9 1 9 8
0 21 9 28 20 7 11 19 20 27 20 8 0 15 4 15 9 0 13 57 81 62 75 3 -3 11 9 16
26 6 17 25 38 41 48 17 9 36 29 42 44 7 17 16 25 25 21 9 -3 14 1 14 13 0 9 7
25 16 35 9 10 17 32 18 51 6 65 6 65 15 48 4 -8 27 -88 51 -177z m-2329 44
c-60 -59 -67 -52 -17 16 21 29 67 59 76 51 2 -3 -24 -33 -59 -67z m2129 -21
c0 -3 -4 -8 -10 -11 -5 -3 -10 -1 -10 4 0 6 5 11 10 11 6 0 10 -2 10 -4z
m-2173 -113 c-3 -10 -18 -65 -33 -123 -33 -127 -49 -150 -40 -60 13 130 35
200 63 200 10 0 14 -6 10 -17z m1068 -698 c126 -26 177 -62 201 -141 16 -53
13 -107 -13 -208 -21 -87 -56 -147 -111 -197 -65 -59 -125 -80 -243 -86 -221
-12 -324 52 -390 246 -21 58 -36 221 -26 262 16 62 105 114 221 128 116 14
281 12 361 -4z m1168 5 c136 -10 185 -29 232 -87 29 -36 30 -42 29 -133 -1
-159 -55 -295 -144 -359 -88 -63 -287 -79 -411 -32 -116 44 -197 152 -219 291
-35 228 21 297 260 319 120 12 122 12 253 1z m-1862 -68 c-7 -2 -18 1 -23 6
-8 8 -4 9 13 5 13 -4 18 -8 10 -11z m1074 -144 c-22 -12 -35 -28 -35 -42 0 -4
12 0 27 9 24 16 71 17 133 3 8 -2 24 -37 37 -83 37 -124 86 -219 148 -284 30
-32 52 -61 48 -65 -4 -4 0 -4 10 0 12 4 17 1 17 -9 0 -9 20 -25 46 -37 40 -17
67 -20 183 -20 75 0 156 5 181 10 124 27 225 101 282 206 26 49 71 188 81 253
3 18 8 35 11 39 16 15 21 -22 20 -151 0 -123 -5 -158 -31 -267 -87 -351 -208
-570 -376 -684 -85 -56 -92 -56 -116 9 -82 218 -163 275 -449 316 -50 7 -92
16 -92 19 0 3 19 18 43 33 24 15 51 40 60 56 19 32 22 76 7 86 -5 3 -7 0 -5
-8 3 -7 -4 -18 -17 -25 -33 -16 -137 -43 -167 -44 -43 -1 -165 34 -179 51 -27
32 -4 -59 24 -96 34 -45 63 -55 142 -47 43 5 63 4 59 -3 -4 -6 -62 -13 -129
-16 -197 -9 -341 -48 -417 -113 -45 -39 -88 -114 -117 -206 -12 -39 -23 -58
-34 -58 -59 0 -236 167 -291 275 -77 148 -171 403 -185 498 -13 95 -29 349
-22 360 10 17 13 11 43 -98 15 -55 42 -127 59 -160 31 -59 131 -175 151 -175
18 0 90 -40 75 -41 -9 0 -7 -3 5 -8 11 -5 86 -9 167 -10 111 -1 157 2 183 13
20 9 48 14 63 12 15 -2 21 -1 13 1 -8 3 10 20 45 42 125 79 185 181 244 409 7
29 18 46 33 52 32 13 46 11 22 -2z m-2995 -903 c95 -25 178 -73 250 -144 64
-64 115 -145 103 -164 -6 -11 -103 92 -103 110 0 26 -139 112 -228 142 -72 24
-190 34 -267 21 l-60 -9 70 4 c39 2 88 0 110 -5 35 -7 29 -8 -40 -9 -44 -1
-106 -7 -138 -15 -58 -14 -201 -89 -247 -131 -14 -12 -35 -28 -48 -34 -12 -7
-35 -38 -49 -69 -22 -48 -27 -53 -31 -33 -7 41 53 144 119 205 65 60 131 99
219 127 70 23 261 25 340 4z m3295 -70 c130 -20 152 -29 182 -73 93 -138 -26
-353 -204 -369 -70 -6 -100 13 -138 87 -26 52 -39 60 -94 60 -46 0 -62 -12
-104 -75 -38 -59 -66 -75 -129 -75 -62 0 -89 11 -144 62 -62 57 -84 106 -84
191 0 99 27 142 105 167 155 50 392 60 610 25z m3020 -437 c3 -24 5 -209 3
-413 l-3 -370 -587 -3 -588 -2 -6 24 c-8 34 0 779 10 794 5 9 136 12 586 12
l579 0 6 -42z m392 -20 c52 -49 57 -164 9 -205 -79 -68 -168 -14 -170 101 -1
111 90 170 161 104z m-7112 -31 c16 -12 17 -25 13 -112 -4 -67 -10 -100 -19
-106 -22 -14 -29 -11 -39 17 -11 28 -14 197 -3 207 10 11 27 8 48 -6z m576
-43 c4 -22 4 -56 0 -75 -5 -27 -12 -35 -34 -37 l-27 -3 0 81 0 81 27 -3 c24
-3 29 -9 34 -44z m-713 -120 c5 -119 -8 -305 -19 -279 -6 17 -8 17 -8 3 -1
-21 -56 -26 -64 -5 -3 7 -6 5 -6 -5 -1 -12 -6 -15 -17 -11 -9 3 -14 13 -11 24
3 11 2 19 -3 19 -16 0 -18 -44 -3 -74 17 -35 9 -28 -29 25 -42 56 -62 130 -54
197 9 81 45 129 125 170 36 18 70 31 75 29 6 -2 12 -42 14 -93z m867 63 c89
-32 139 -111 139 -217 -1 -91 -26 -143 -74 -147 -58 -6 -80 -13 -100 -33 -20
-20 -20 -20 -20 23 -1 23 -5 119 -10 212 -4 94 -6 173 -4 177 5 7 14 5 69 -15z
m6463 -266 c8 -1 12 -11 10 -28 -3 -25 -8 -28 -43 -31 -29 -3 -43 1 -52 14
-19 26 -16 42 10 46 20 3 34 3 75 -1z m-130 -32 c3 -25 1 -26 -59 -33 -100
-10 -99 -10 -99 29 l0 36 78 -3 c75 -3 77 -4 80 -29z m-4488 -124 c0 -8 -19
-29 -42 -45 -266 -190 -404 -337 -525 -560 -88 -163 -193 -507 -253 -827 -11
-60 -23 -118 -25 -130 -5 -21 -53 -43 -94 -43 -16 0 -10 38 18 128 10 31 21
81 24 110 5 50 46 189 151 522 85 267 182 429 365 610 104 102 193 166 305
217 84 38 76 37 76 18z m1849 -30 c102 -55 189 -123 277 -218 190 -204 288
-392 404 -772 130 -431 149 -500 141 -535 l-7 -35 -8 30 c-8 29 -8 29 -17 8
-11 -29 -25 -29 -43 0 -16 23 -21 40 -86 312 -46 190 -109 388 -166 521 -121
282 -306 506 -541 657 -70 45 -93 77 -55 77 9 0 55 -21 101 -45z m2766 15 c0
-20 -6 -26 -29 -28 -18 -2 -39 4 -56 16 -26 20 -28 20 -81 2 -30 -10 -67 -20
-84 -22 -26 -3 -30 0 -33 24 l-3 27 108 4 c180 5 178 6 178 -23z m-7386 -6
c14 -12 -19 -1 -35 12 -18 14 -18 14 6 3 14 -6 27 -13 29 -15z m891 1 c10 -12
10 -15 -4 -15 -9 0 -16 7 -16 15 0 8 2 15 4 15 2 0 9 -7 16 -15z m6270 -126
c0 -6 -4 -8 -9 -5 -12 8 -28 -14 -34 -44 -3 -17 -5 -11 -6 17 -1 32 3 42 17
46 20 4 32 -1 32 -14z m231 5 c13 -8 11 -62 -3 -71 -41 -25 -108 -6 -108 31 0
50 9 59 57 52 25 -3 49 -8 54 -12z m-1373 -296 l3 -48 -49 0 c-27 0 -51 2 -53
4 -2 3 -3 25 -1 51 l4 46 47 -3 46 -3 3 -47z m185 5 c4 -20 4 -40 1 -45 -3 -4
-30 -8 -60 -8 -49 0 -54 2 -54 23 0 57 10 67 60 67 47 0 47 0 53 -37z m175
-15 l3 -48 -55 0 -56 0 0 51 0 50 53 -3 52 -3 3 -47z m352 33 c0 -11 -4 -31
-10 -45 -8 -23 -15 -26 -54 -26 l-44 0 -4 41 c-2 22 -2 42 1 45 2 2 28 4 58 4
46 0 53 -3 53 -19z m178 -23 c3 -35 1 -37 -31 -43 -60 -12 -72 -5 -75 43 l-3
43 53 -3 53 -3 3 -37z m-1073 -8 l0 -35 -66 -3 c-73 -3 -81 3 -72 52 5 26 7
27 72 24 l66 -3 0 -35z m725 11 c0 -35 -23 -61 -53 -61 -12 0 -32 -3 -44 -6
-21 -6 -23 -3 -23 29 0 61 6 67 66 67 53 0 54 -1 54 -29z m-562 -130 c31 -1
32 -2 32 -44 0 -63 -17 -81 -69 -74 -24 3 -45 7 -47 9 -2 3 -7 26 -10 52 -8
52 3 68 41 61 11 -2 35 -4 53 -4z m207 -1 c4 -6 3 -35 0 -65 l-7 -55 -53 0
c-46 0 -53 3 -59 23 -8 30 -8 92 1 100 10 11 111 8 118 -3z m513 1 c15 -1 16
-59 2 -95 -8 -23 -15 -26 -55 -26 l-45 0 0 38 c0 20 -3 47 -6 59 -5 17 -1 22
18 26 12 2 34 3 48 1 14 -1 31 -3 38 -3z m192 -50 c0 -33 -5 -63 -10 -66 -6
-4 -33 -4 -60 0 l-50 7 0 53 c0 60 3 63 73 64 l47 1 0 -59z m-1084 25 c3 -13
4 -35 2 -47 -2 -20 -10 -25 -42 -27 -22 -2 -50 -1 -62 2 -21 6 -23 12 -22 51
l2 45 58 0 c52 0 58 -2 64 -24z m554 -30 c0 -59 -7 -66 -64 -66 -44 0 -56 16
-56 72 l0 48 60 0 60 0 0 -54z m170 -6 l0 -60 -55 0 -55 0 0 60 0 60 55 0 55
0 0 -60z m-712 -172 l-3 -63 -62 -3 -61 -3 -4 58 c-2 32 -3 61 -1 66 3 4 33 7
69 7 l65 0 -3 -62z m194 12 c-5 -72 -9 -77 -57 -85 -25 -3 -49 -3 -55 0 -5 3
-10 33 -10 65 0 65 5 69 85 66 l40 -1 -3 -45z m171 -23 l-6 -57 -53 0 -54 0 0
59 0 60 53 3 c28 2 55 1 59 -2 4 -3 4 -31 1 -63z m175 8 c4 -66 -3 -75 -61
-75 -43 0 -51 11 -52 80 l0 45 45 6 c25 3 50 5 55 4 6 -1 11 -28 13 -60z m172
0 c0 -55 -3 -65 -17 -65 -10 0 -35 -3 -55 -6 l-38 -7 0 66 0 66 33 4 c82 10
77 14 77 -58z m170 -6 l0 -59 -55 0 -55 0 0 59 0 60 48 3 c26 2 50 2 55 0 4
-2 7 -30 7 -63z m194 30 c3 -17 6 -44 6 -60 0 -29 -1 -29 -59 -29 -67 0 -71 5
-71 76 l0 44 59 0 c58 0 59 -1 65 -31z m-4974 -70 c0 -6 -9 -32 -21 -58 -17
-40 -27 -50 -57 -59 -45 -14 -595 -291 -637 -322 -5 -4 -59 -33 -120 -65 -60
-32 -128 -70 -149 -86 -31 -22 -43 -26 -58 -18 -52 28 -28 68 78 131 282 166
907 487 952 488 6 0 12 -5 12 -11z"/>
<path d="M4300 6061 c0 -11 25 -21 51 -21 10 0 19 -4 19 -10 0 -5 5 -10 10
-10 6 0 20 -9 32 -20 12 -11 34 -20 49 -20 14 0 45 -6 67 -14 22 -8 43 -12 46
-9 13 13 5 23 -19 23 -14 0 -25 5 -25 10 0 6 -10 10 -22 10 -22 1 -23 1 -4 15
18 14 15 15 -42 15 -50 0 -64 4 -74 19 -8 14 -17 17 -28 11 -9 -5 -22 -5 -31
1 -18 11 -29 11 -29 0z"/>
<path d="M5353 5997 c-46 -13 -66 -27 -38 -27 26 0 85 22 85 32 0 4 -1 8 -2 7
-2 -1 -22 -6 -45 -12z"/>
<path d="M5280 5955 c0 -8 4 -15 10 -15 5 0 7 7 4 15 -4 8 -8 15 -10 15 -2 0
-4 -7 -4 -15z"/>
<path d="M5200 5930 c-24 -8 -24 -8 7 -9 17 -1 35 4 38 9 7 11 -9 11 -45 0z"/>
<path d="M5088 5893 c6 -2 18 -2 25 0 6 3 1 5 -13 5 -14 0 -19 -2 -12 -5z"/>
<path d="M4472 5444 c-32 -22 -52 -67 -52 -117 0 -36 6 -50 41 -90 39 -44 45
-47 90 -47 39 0 55 6 79 28 67 59 56 188 -20 227 -38 19 -109 19 -138 -1z"/>
<path d="M5617 5449 c-45 -26 -58 -102 -32 -180 35 -103 153 -105 215 -4 34
54 24 118 -24 162 -31 29 -43 33 -88 33 -29 0 -61 -5 -71 -11z"/>
<path d="M4230 4841 c0 -8 41 -23 47 -17 2 1 -8 8 -22 14 -14 6 -25 8 -25 3z"/>
<path d="M4678 4813 c-10 -2 -18 -8 -18 -13 0 -5 -6 -10 -12 -13 -7 -2 -2 -2
12 0 14 3 26 8 28 13 2 5 10 6 19 3 11 -4 14 -2 9 5 -7 12 -9 13 -38 5z"/>
<path d="M1704 4362 c-47 -18 -164 -92 -183 -116 -8 -9 -11 -19 -7 -23 3 -3 6
-1 6 6 0 16 132 100 191 120 27 10 51 20 54 23 10 10 -24 4 -61 -10z"/>
<path d="M4907 4282 c-116 -3 -118 -3 -115 -25 5 -39 52 -46 328 -46 277 0
323 7 328 47 3 21 0 22 -60 24 -120 3 -364 3 -481 0z"/>
<path d="M7300 3835 l0 -25 243 0 c245 0 267 3 267 37 0 10 -52 13 -255 13
l-255 0 0 -25z"/>
<path d="M7465 3730 c-42 -4 -50 -8 -53 -27 l-3 -23 226 0 c225 0 265 5 265
35 0 12 -34 15 -192 17 -106 2 -215 1 -243 -2z"/>
<path d="M7658 3603 l-148 -4 0 -24 c0 -24 2 -25 53 -20 75 8 186 13 310 14
100 1 107 2 107 21 0 19 -6 20 -87 18 -49 -1 -154 -4 -235 -5z"/>
<path d="M7535 3470 c-2 -4 -2 -15 -1 -26 3 -18 13 -19 227 -19 208 0 227 1
254 20 l30 20 -25 2 c-62 5 -482 8 -485 3z"/>
<path d="M7608 3343 c-39 -3 -48 -8 -48 -23 0 -10 3 -21 8 -23 4 -3 124 -2
267 2 241 6 260 7 263 24 4 17 -6 18 -145 16 -81 -1 -182 0 -223 3 -41 3 -96
4 -122 1z"/>
<path d="M8667 3803 c-10 -2 -16 -10 -14 -16 5 -15 147 -22 147 -8 0 16 -97
34 -133 24z"/>
<path d="M7218 2569 c-21 -23 -23 -52 -4 -68 17 -14 46 -4 47 18 0 12 2 12 9
-4 10 -23 10 -23 14 33 3 40 2 42 -23 41 -14 0 -34 -9 -43 -20z"/>
<path d="M3480 7830 c-13 -9 -13 -10 0 -10 8 0 22 5 30 10 13 9 13 10 0 10 -8
0 -22 -5 -30 -10z"/>
<path d="M3936 7648 c-29 -44 17 -145 78 -175 67 -32 86 23 41 114 -30 59 -40
69 -77 78 -21 5 -30 2 -42 -17z"/>
<path d="M5128 7523 c7 -3 16 -2 19 1 4 3 -2 6 -13 5 -11 0 -14 -3 -6 -6z"/>
<path d="M4424 7455 c-10 -8 -14 -14 -9 -14 6 0 19 6 29 14 11 8 15 15 10 15
-6 0 -19 -7 -30 -15z"/>
<path d="M4285 7390 c-3 -5 -1 -10 4 -10 6 0 11 5 11 10 0 6 -2 10 -4 10 -3 0
-8 -4 -11 -10z"/>
<path d="M8378 7373 c6 -2 9 -9 6 -15 -4 -6 3 -8 17 -6 37 5 35 28 -3 27 -18
0 -27 -3 -20 -6z"/>
<path d="M2511 7306 c-17 -20 -10 -60 11 -64 24 -5 36 44 16 64 -13 13 -16 13
-27 0z"/>
<path d="M8490 7310 c0 -5 5 -10 10 -10 6 0 10 5 10 10 0 6 -4 10 -10 10 -5 0
-10 -4 -10 -10z"/>
<path d="M1507 7239 c-37 -28 -70 -56 -73 -64 -3 -7 20 -60 52 -117 89 -158
184 -360 184 -388 0 -29 72 2 98 42 10 15 81 87 159 162 78 75 136 136 127
136 -25 0 -95 40 -199 114 -126 91 -247 166 -266 166 -8 -1 -45 -23 -82 -51z"/>
<path d="M8282 7244 c-14 -10 -32 -14 -48 -10 -19 5 -24 3 -24 -13 0 -11 -5
-23 -11 -27 -14 -8 -7 -80 12 -120 14 -27 19 -29 67 -28 30 1 63 9 77 18 23
15 29 15 55 2 25 -12 30 -12 30 -1 0 25 16 24 43 -1 47 -43 85 -26 127 56 18
36 19 43 7 72 -8 18 -24 42 -36 52 -19 17 -21 17 -21 2 0 -13 -4 -15 -18 -7
-25 13 -99 12 -139 -2 -27 -9 -35 -8 -51 6 -23 21 -41 21 -70 1z m148 -48 c0
-3 -4 -8 -10 -11 -5 -3 -10 -1 -10 4 0 6 5 11 10 11 6 0 10 -2 10 -4z m-140
-62 c0 -19 -4 -33 -8 -30 -8 5 -4 66 4 66 2 0 4 -16 4 -36z m136 -9 c-3 -8 -1
-17 4 -20 6 -4 10 4 11 17 0 22 1 22 8 3 10 -24 -4 -45 -30 -45 -21 0 -23 10
-13 60 6 27 9 29 16 16 5 -10 7 -24 4 -31z"/>
<path d="M2420 7225 c-12 -31 -3 -55 20 -55 25 0 30 20 13 53 -17 33 -21 34
-33 2z"/>
<path d="M7332 7175 c-66 -30 -141 -105 -171 -170 -21 -44 -23 -59 -17 -129 8
-97 33 -157 89 -214 53 -54 101 -79 178 -91 136 -22 274 50 335 175 24 49 26
63 22 137 -8 142 -73 249 -182 298 -63 29 -186 26 -254 -6z m227 -57 c49 -13
101 -60 134 -123 16 -29 21 -57 21 -105 -1 -166 -144 -286 -300 -251 -58 13
-156 85 -187 138 -23 41 -25 168 -3 212 24 46 113 120 159 131 23 6 47 13 52
15 13 4 69 -3 124 -17z"/>
<path d="M2347 7173 c-11 -11 -8 -48 5 -61 19 -19 38 -14 38 11 0 25 -32 62
-43 50z"/>
<path d="M2266 7103 c-10 -10 -7 -18 15 -42 23 -24 47 -16 36 13 -7 18 -42 38
-51 29z"/>
<path d="M3918 7033 c-104 -129 -117 -148 -134 -192 -21 -54 -78 -156 -99
-178 -9 -8 -14 -18 -11 -21 10 -9 36 20 67 77 87 154 126 218 180 288 53 69
67 93 55 93 -2 0 -28 -30 -58 -67z"/>
<path d="M2197 7022 c-23 -25 -21 -32 7 -32 31 0 43 18 24 36 -12 13 -17 12
-31 -4z"/>
<path d="M8379 6986 c-7 -23 -23 -55 -36 -73 l-23 -32 21 -11 c11 -6 27 -9 35
-6 7 3 34 -2 59 -12 42 -15 49 -15 113 1 37 9 84 17 105 17 46 0 48 14 3 35
-32 15 -36 15 -74 -5 -38 -20 -43 -20 -70 -6 -19 10 -38 33 -52 63 -12 27 -32
53 -45 59 -21 10 -24 8 -36 -30z"/>
<path d="M2123 6958 c5 -56 48 -171 55 -150 2 7 -6 39 -17 72 -12 33 -21 73
-21 89 0 17 -5 33 -12 37 -8 5 -10 -8 -5 -48z"/>
<path d="M8710 6880 c8 -5 22 -9 30 -9 10 0 8 3 -5 9 -27 12 -43 12 -25 0z"/>
<path d="M8360 6715 c-11 -13 -8 -15 14 -15 14 0 26 -6 26 -12 0 -9 4 -8 10 2
9 13 11 13 20 0 9 -13 10 -13 10 1 0 36 -56 53 -80 24z"/>
<path d="M8590 6637 c-119 -81 -126 -95 -95 -187 18 -53 45 -70 114 -70 27 0
32 -3 21 -10 -13 -8 -12 -10 3 -10 10 0 17 8 17 20 0 11 -7 20 -15 20 -30 0
-92 39 -98 61 -12 45 51 124 83 104 16 -10 60 -117 60 -146 0 -25 4 -29 28
-29 15 0 33 -5 39 -11 9 -9 21 -6 48 11 95 59 100 165 12 258 -17 17 -36 32
-43 32 -6 0 -17 7 -24 15 -20 24 -40 17 -150 -58z m193 -41 c10 -25 17 -61 15
-83 -3 -33 -7 -38 -29 -41 -32 -4 -54 25 -63 83 -7 43 -2 56 29 73 28 16 28
16 48 -32z"/>
<path d="M8442 6650 c0 -14 2 -19 5 -12 2 6 2 18 0 25 -3 6 -5 1 -5 -13z"/>
<path d="M8223 6645 c-81 -57 -84 -188 -4 -244 43 -31 77 -27 117 13 30 30 34
40 34 88 0 56 -20 98 -46 98 -11 0 -12 -4 -4 -19 30 -57 -3 -151 -49 -136 -52
16 -63 98 -22 178 20 40 11 48 -26 22z"/>
<path d="M3636 6625 c-11 -8 -15 -15 -9 -15 6 0 16 7 23 15 16 19 11 19 -14 0z"/>
<path d="M2780 6553 c-8 -3 -18 -11 -22 -17 -11 -16 -10 -116 1 -116 17 0 25
24 26 70 0 44 1 45 34 48 41 4 51 -8 51 -65 0 -51 -32 -79 -77 -69 -21 5 -24
4 -13 -4 24 -16 65 -12 94 11 31 24 35 73 11 119 -13 25 -21 30 -53 29 -20 0
-44 -3 -52 -6z"/>
<path d="M2977 6553 c-3 -5 18 -6 45 -4 34 2 53 -1 59 -10 4 -7 11 -10 14 -7
4 4 4 11 0 17 -7 12 -111 15 -118 4z"/>
<path d="M8460 6380 c0 -5 7 -10 15 -10 8 0 15 5 15 10 0 6 -7 10 -15 10 -8 0
-15 -4 -15 -10z"/>
<path d="M1228 6121 c-117 -11 -107 62 -105 -740 l1 -691 24 -23 c23 -21 31
-22 200 -21 97 0 355 0 572 0 602 -1 572 -2 609 20 l32 19 -5 280 c-2 154 -5
287 -6 295 -1 8 1 195 5 415 8 395 7 400 -13 418 -19 17 -54 19 -539 22 -285
3 -561 6 -613 8 -52 3 -125 2 -162 -2z m62 -115 c0 -11 3 -31 6 -43 6 -20 3
-23 -24 -23 -51 0 -74 72 -29 89 30 11 47 3 47 -23z m125 24 c3 -5 15 -10 26
-10 17 0 20 -6 17 -37 -3 -38 -3 -38 -48 -39 -25 0 -53 -4 -63 -8 -24 -11 -36
2 -39 39 -3 39 9 57 32 50 10 -3 21 -1 25 5 8 13 42 13 50 0z m553 0 c2 0 0
-4 -3 -10 -3 -5 3 -10 14 -10 12 0 21 -5 21 -11 0 -6 -7 -9 -15 -6 -8 4 -17 1
-21 -5 -5 -8 3 -9 24 -5 18 4 32 3 32 -2 0 -5 10 -12 23 -16 13 -4 17 -8 9
-12 -7 -2 -27 0 -44 6 -17 6 -48 11 -68 11 -32 0 -39 -5 -55 -35 -18 -32 -18
-36 -3 -69 15 -30 15 -36 2 -46 -7 -7 -14 -27 -14 -44 0 -28 4 -32 29 -34 16
-1 68 -20 116 -42 72 -34 89 -38 99 -27 6 7 41 39 79 71 37 32 67 64 67 71 0
13 21 25 44 25 7 0 13 -16 14 -36 2 -26 -1 -35 -10 -32 -7 3 -39 -17 -71 -44
-64 -53 -114 -108 -99 -108 13 0 59 -105 73 -168 l12 -52 107 0 c68 0 110 4
118 12 15 15 25 5 27 -29 3 -38 -14 -71 -26 -52 -6 10 -40 15 -129 17 l-120 4
0 -26 c0 -35 -35 -124 -59 -150 l-20 -21 59 -60 c32 -33 70 -69 85 -80 18 -14
24 -25 20 -37 -12 -31 -32 -20 -116 61 -67 65 -84 77 -95 67 -11 -11 -124 -59
-188 -80 -17 -6 -18 -13 -11 -84 4 -42 7 -98 6 -124 -1 -29 3 -48 9 -48 6 0 8
-5 5 -11 -5 -7 5 -8 29 -5 20 3 52 8 71 11 26 5 37 2 41 -10 3 -8 15 -15 25
-15 10 0 19 -4 19 -9 0 -12 -227 -25 -279 -16 -24 4 -41 12 -41 20 0 14 73 31
90 20 14 -8 13 -4 -6 34 -17 34 -21 116 -9 187 7 42 7 42 -32 54 -21 7 -78 30
-127 52 l-89 39 -25 -23 c-15 -13 -31 -27 -38 -33 -64 -55 -95 -90 -86 -93 11
-3 18 -32 7 -32 -16 0 -55 25 -55 36 0 7 -8 17 -17 23 -10 5 -15 13 -11 17 4
4 14 1 23 -6 17 -14 23 -9 119 88 l52 52 -43 86 c-24 47 -43 92 -43 100 0 11
-21 14 -99 14 l-98 0 -8 -32 c-4 -18 -7 -44 -7 -58 0 -23 0 -23 -5 -2 -2 12
-8 22 -12 22 -4 0 -8 14 -9 32 -2 18 -8 35 -14 39 -19 12 -6 173 14 185 6 4 7
-2 3 -16 -5 -15 -4 -20 4 -16 6 4 11 20 11 37 0 16 5 29 10 29 6 0 10 16 10
36 0 45 20 124 31 124 5 0 9 7 9 15 0 9 11 28 25 43 14 15 25 34 25 42 0 13 1
13 10 0 5 -8 10 -10 10 -5 0 21 97 73 154 84 31 6 64 17 72 26 9 8 22 15 29
15 8 0 18 6 22 14 12 20 68 46 101 46 17 0 43 7 58 15 25 14 85 16 152 5z"/>
<path d="M1374 6010 c0 -11 4 -20 8 -20 4 0 12 9 18 20 9 17 8 20 -8 20 -11 0
-18 -7 -18 -20z"/>
<path d="M1680 5951 c-30 -10 -73 -28 -94 -40 -50 -26 -136 -99 -136 -114 0
-11 82 -96 136 -140 20 -16 23 -15 74 23 37 28 71 43 112 51 57 11 58 12 58
45 0 18 -4 36 -10 39 -15 10 -12 50 8 84 36 64 -37 89 -148 52z"/>
<path d="M1360 5723 c-70 -86 -137 -295 -101 -317 5 -3 53 -9 108 -12 l99 -7
17 81 c10 45 29 96 43 118 l25 37 -68 69 c-37 37 -73 68 -80 68 -6 0 -26 -17
-43 -37z"/>
<path d="M1740 5673 c-48 -24 -169 -148 -191 -198 -33 -71 -30 -75 59 -74 42
0 71 3 65 6 -19 7 16 68 72 127 45 47 47 48 66 31 19 -18 19 -17 19 53 0 72 0
72 -27 72 -16 0 -44 -8 -63 -17z"/>
<path d="M1866 5549 c4 -79 7 -145 8 -145 0 -1 60 -3 131 -5 l130 -4 3 34 c2
19 1 48 -2 65 -6 31 -45 86 -62 86 -19 1 -56 41 -51 54 7 17 -50 43 -116 52
l-47 6 6 -143z"/>
<path d="M1520 5345 c0 -13 61 -111 93 -149 41 -50 150 -110 188 -104 24 3 24
5 27 131 l3 127 -156 0 c-85 0 -155 -2 -155 -5z m267 -87 c-3 -8 -6 -5 -6 6
-1 11 2 17 5 13 3 -3 4 -12 1 -19z"/>
<path d="M1870 5336 c0 -8 5 -18 10 -21 6 -3 10 0 10 8 0 17 46 15 63 -2 6 -6
19 -11 30 -11 16 0 17 -2 3 -15 -8 -8 -22 -15 -30 -15 -9 0 -16 -5 -16 -11 0
-5 -5 -7 -11 -3 -8 5 -10 -6 -7 -34 2 -22 0 -38 -4 -36 -5 3 -8 15 -8 27 -1
12 -7 36 -15 52 -13 28 -14 29 -9 4 3 -15 1 -30 -5 -33 -10 -6 -17 -166 -8
-166 20 0 118 37 146 55 79 51 115 101 127 174 l7 41 -142 0 c-116 0 -141 -3
-141 -14z"/>
<path d="M3174 5985 c11 -8 22 -12 25 -9 6 6 -19 24 -34 24 -5 -1 -1 -7 9 -15z"/>
<path d="M3267 5993 c-14 -14 -6 -19 22 -15 37 5 46 -17 26 -65 -12 -28 -19
-34 -35 -30 -11 3 -18 1 -14 -4 9 -15 40 -10 57 9 24 26 22 88 -2 102 -23 12
-45 13 -54 3z"/>
<path d="M2863 5965 c12 -13 24 -20 25 -14 7 18 -7 39 -27 39 -19 0 -19 -1 2
-25z"/>
<path d="M7044 5966 c-8 -34 1 -45 39 -43 29 2 32 5 32 32 0 26 -4 30 -32 33
-27 3 -33 -1 -39 -22z"/>
<path d="M7164 5976 c-11 -29 1 -51 26 -51 21 0 26 5 28 33 3 29 1 32 -23 32
-14 0 -28 -6 -31 -14z"/>
<path d="M7280 5955 c0 -28 4 -35 20 -35 22 0 44 34 36 56 -3 8 -17 14 -31 14
-22 0 -25 -4 -25 -35z"/>
<path d="M7397 5984 c-4 -4 -7 -18 -7 -31 0 -21 4 -24 28 -21 21 2 27 8 27 28
0 18 -6 26 -20 28 -12 2 -24 0 -28 -4z"/>
<path d="M7697 5983 c-52 -5 -55 -22 -4 -24 l32 -2 -35 -7 c-22 -5 -28 -8 -15
-10 15 -2 12 -4 -10 -10 -24 -6 -26 -8 -7 -9 25 -1 30 -16 8 -24 -11 -5 -303
-10 -592 -11 l-32 0 -4 -175 c-2 -97 -2 -395 0 -663 l5 -488 957 0 958 0 3
313 c2 171 2 471 0 666 l-3 354 -249 -6 c-241 -5 -249 -5 -249 14 0 10 5 19
11 19 5 0 7 5 4 10 -3 6 -23 11 -43 12 -37 1 -37 1 8 8 l45 7 -45 3 -45 3 35
7 c21 4 -31 8 -131 9 -91 0 -253 3 -360 5 -107 2 -215 2 -242 -1z m-453 -189
c11 -28 6 -35 -21 -32 -20 2 -29 9 -31 26 -3 18 1 22 21 22 14 0 28 -7 31 -16z
m94 -1 c33 -8 8 -23 -38 -23 -33 1 -34 2 -16 15 22 17 23 17 54 8z m347 -83
c4 -7 -8 -8 -37 -4 -57 9 -61 14 -10 14 22 0 44 -5 47 -10z m197 -7 c-8 -13
-27 -17 -91 -19 -74 -2 -81 0 -81 17 0 17 8 19 90 19 82 0 90 -2 82 -17z m98
2 c0 -10 -10 -15 -34 -15 -21 0 -36 6 -40 15 -4 12 3 15 34 15 29 0 40 -4 40
-15z m255 -5 c0 -22 -29 -18 -33 3 -3 14 1 18 15 15 10 -2 18 -10 18 -18z
m-995 -25 c0 -19 -4 -35 -10 -35 -5 0 -10 16 -10 35 0 19 5 35 10 35 6 0 10
-16 10 -35z m1100 20 c0 -15 -26 -20 -54 -9 -28 11 -17 24 19 24 24 0 35 -5
35 -15z m-1102 -242 c2 -177 -3 -243 -19 -243 -7 0 -9 77 -7 205 2 139 6 205
14 205 7 0 11 -54 12 -167z m671 136 c68 -1 94 -10 70 -24 -15 -10 -272 6
-262 15 10 10 70 18 100 14 12 -2 54 -5 92 -5z m51 -110 c0 -17 -8 -19 -95
-19 -52 0 -95 2 -95 4 0 29 15 34 101 34 81 0 89 -2 89 -19z m260 1 c0 -18 -6
-20 -41 -18 -48 2 -60 14 -27 27 41 17 68 13 68 -9z m93 0 c-6 -23 -63 -29
-63 -7 0 20 10 27 41 27 22 0 26 -4 22 -20z m92 0 c0 -9 -11 -16 -27 -18 -23
-3 -28 1 -28 18 0 17 5 21 28 18 16 -2 27 -9 27 -18z m83 -2 c2 -11 -3 -18
-12 -18 -9 0 -16 6 -16 14 0 8 -6 17 -12 20 -7 3 -2 4 12 3 15 -1 26 -9 28
-19z m-1068 -164 c0 -8 -4 -14 -10 -14 -5 0 -10 9 -10 21 0 11 5 17 10 14 6
-3 10 -13 10 -21z m395 -56 c6 1 40 4 78 7 56 6 68 4 73 -10 4 -9 5 -18 2 -20
-2 -2 -39 -6 -83 -9 -44 -2 -80 -5 -80 -6 0 -1 -51 -4 -112 -6 -62 -2 -113 0
-113 4 0 5 6 16 13 25 9 13 32 17 97 20 47 1 92 1 100 -1 8 -3 20 -4 25 -4z
m-580 -121 c2 -35 0 -57 -6 -57 -6 0 -7 -5 -4 -11 11 -17 15 -142 6 -174 -6
-23 -9 -6 -13 70 -9 155 -10 214 -3 226 11 17 15 6 20 -54z m1059 10 c-9 -29
-8 -29 -38 -17 -32 12 -30 32 5 41 32 8 41 2 33 -24z m-440 6 c6 -16 -24 -33
-58 -33 -19 0 -26 5 -26 18 0 10 2 21 5 24 10 10 75 3 79 -9z m43 -9 c-9 -9
-28 6 -21 18 4 6 10 6 17 -1 6 -6 8 -13 4 -17z m210 20 c-3 -3 -12 -4 -19 -1
-8 3 -5 6 6 6 11 1 17 -2 13 -5z m103 -14 c0 -21 -12 -23 -65 -10 l-30 7 35
10 c51 16 60 15 60 -7z m188 -7 c2 -16 -2 -23 -13 -23 -9 0 -13 5 -10 10 3 6
1 10 -4 10 -6 0 -11 -5 -11 -11 0 -5 -4 -7 -10 -4 -5 3 -10 15 -10 26 0 31 54
22 58 -8z m-645 2 c8 -20 1 -22 -72 -31 -58 -6 -64 -5 -58 10 4 10 7 22 7 27
0 5 27 9 59 9 43 0 60 -4 64 -15z m89 -98 c12 -19 -3 -23 -64 -19 -40 3 -58 8
-58 17 0 25 107 27 122 2z m32 -193 c3 -8 10 -13 16 -9 12 7 80 -4 80 -14 0
-10 -254 -1 -264 10 -6 5 -19 9 -30 9 -17 0 -18 2 -6 10 8 5 56 10 106 10 74
0 93 -3 98 -16z m-644 -71 c0 -41 -3 -54 -10 -43 -17 26 -12 100 7 100 2 0 3
-26 3 -57z m1325 21 c0 -27 -41 -31 -50 -5 -3 12 -4 25 0 30 9 16 50 -4 50
-25z m105 -1 c0 -22 -29 -27 -50 -8 -26 23 -25 33 3 37 26 5 47 -8 47 -29z
m-200 11 c0 -8 -4 -12 -10 -9 -5 3 -10 10 -10 16 0 5 5 9 10 9 6 0 10 -7 10
-16z m-617 -31 c-7 -2 -21 -2 -30 0 -10 3 -4 5 12 5 17 0 24 -2 18 -5z m60 0
c-7 -2 -19 -2 -25 0 -7 3 -2 5 12 5 14 0 19 -2 13 -5z m17 -23 c0 -6 -29 -10
-70 -10 -91 0 -91 14 0 18 42 1 70 -2 70 -8z m-681 -87 c1 -7 -8 -13 -19 -13
-23 0 -23 0 -9 37 10 26 12 27 19 8 5 -11 9 -26 9 -32z"/>
<path d="M8711 5958 c-11 -28 7 -41 44 -32 37 9 31 48 -8 52 -21 3 -29 -2 -36
-20z"/>
<path d="M8838 5973 c-20 -3 -28 -10 -28 -24 0 -16 7 -19 41 -19 47 0 79 14
79 35 0 15 -29 17 -92 8z"/>
<path d="M2876 5914 c-4 -9 -4 -19 -1 -22 2 -3 7 3 11 12 4 9 4 19 1 22 -2 3
-7 -3 -11 -12z"/>
<path d="M3191 5906 c-1 -15 -8 -17 -42 -14 -35 3 -38 2 -23 -9 34 -25 80 -10
71 23 -4 18 -5 18 -6 0z"/>
<path d="M8523 5903 c9 -2 23 -2 30 0 6 3 -1 5 -18 5 -16 0 -22 -2 -12 -5z"/>
<path d="M2838 5753 c28 -6 46 -38 37 -70 -4 -16 -2 -22 5 -18 5 3 10 22 10
40 0 36 -22 56 -57 54 -13 -1 -12 -3 5 -6z"/>
<path d="M3160 5750 c0 -5 9 -10 21 -10 11 0 17 5 14 10 -3 6 -13 10 -21 10
-8 0 -14 -4 -14 -10z"/>
<path d="M3332 5700 c0 -14 2 -19 5 -12 2 6 2 18 0 25 -3 6 -5 1 -5 -13z"/>
<path d="M3260 5671 c0 -5 5 -13 10 -16 6 -3 10 -2 10 4 0 5 -4 13 -10 16 -5
3 -10 2 -10 -4z"/>
<path d="M2975 5660 c-19 -8 -19 -9 3 -9 12 -1 22 4 22 9 0 6 -1 10 -2 9 -2 0
-12 -4 -23 -9z"/>
<path d="M2804 5525 c-18 -15 -18 -15 9 -9 49 11 76 -35 41 -70 -20 -21 -30
-20 -54 4 -11 11 -20 16 -20 12 0 -15 36 -42 56 -42 29 0 44 20 44 58 0 53
-38 76 -76 47z"/>
<path d="M3125 5531 c-3 -5 7 -11 22 -13 23 -2 29 -8 31 -35 2 -23 -3 -35 -20
-47 -22 -15 -22 -16 -2 -16 39 0 55 89 20 112 -15 11 -44 10 -51 -1z"/>
<path d="M3250 5530 c0 -5 16 -10 35 -10 33 0 35 -2 35 -35 0 -27 -6 -37 -27
-49 -25 -14 -26 -15 -7 -16 12 0 27 6 33 14 17 20 17 86 0 97 -19 12 -69 11
-69 -1z"/>
<path d="M2970 5526 c0 -2 9 -6 20 -9 11 -3 20 -1 20 4 0 5 -9 9 -20 9 -11 0
-20 -2 -20 -4z"/>
<path d="M2955 5429 c-11 -17 1 -21 15 -4 8 9 8 15 2 15 -6 0 -14 -5 -17 -11z"/>
<path d="M3587 5332 c-16 -22 -37 -63 -48 -92 -21 -56 -28 -155 -11 -172 14
-14 19 -1 26 58 8 78 32 168 51 197 28 44 11 52 -18 9z"/>
<path d="M6625 5343 c5 -10 16 -38 25 -63 9 -25 21 -53 25 -64 4 -10 11 -32
15 -50 8 -31 8 -31 9 9 1 47 -16 107 -44 153 -20 33 -43 45 -30 15z"/>
<path d="M3273 5303 c-26 -10 -12 -19 27 -18 41 0 52 8 24 19 -18 7 -33 7 -51
-1z"/>
<path d="M2807 5287 c-4 -10 2 -13 20 -9 18 3 30 -1 40 -13 10 -15 13 -15 13
-4 0 34 -62 56 -73 26z"/>
<path d="M3133 5293 c-27 -10 -11 -21 22 -16 33 5 35 4 35 -24 0 -35 -16 -53
-49 -54 l-26 -1 25 -7 c49 -15 73 13 63 73 -5 31 -9 36 -32 35 -14 0 -32 -3
-38 -6z"/>
<path d="M3011 5234 c0 -11 3 -14 6 -6 3 7 2 16 -1 19 -3 4 -6 -2 -5 -13z"/>
<path d="M3320 5225 c-10 -20 -20 -25 -37 -22 -12 2 -20 0 -17 -4 15 -25 82
13 72 41 -2 7 -10 0 -18 -15z"/>
<path d="M2862 5219 c-11 -17 -20 -20 -45 -15 -30 5 -31 5 -13 -9 11 -8 25
-15 32 -15 17 0 44 28 44 46 0 19 -3 18 -18 -7z"/>
<path d="M2980 5195 c-17 -10 -20 -14 -9 -15 9 0 22 7 29 15 15 18 12 18 -20
0z"/>
<path d="M6692 5070 c0 -19 2 -27 5 -17 2 9 2 25 0 35 -3 9 -5 1 -5 -18z"/>
<path d="M2823 5073 c-23 -4 -50 -30 -41 -39 3 -2 17 1 31 7 36 16 57 5 57
-30 0 -39 -30 -57 -62 -40 -21 11 -22 11 -9 -4 32 -40 91 -4 91 55 0 25 -23
60 -38 57 -4 -1 -17 -4 -29 -6z"/>
<path d="M2992 5073 c-13 -2 -21 -10 -19 -16 3 -7 11 -10 18 -8 8 2 27 4 42 4
15 0 26 5 24 11 -4 12 -30 16 -65 9z"/>
<path d="M3138 5069 c-21 -12 -24 -39 -5 -39 7 0 19 6 25 12 10 10 17 10 33 0
26 -16 29 -13 18 16 -9 24 -41 29 -71 11z"/>
<path d="M3273 5073 c-7 -2 -13 -12 -13 -20 0 -11 5 -13 18 -8 9 4 29 10 44
13 15 2 25 8 22 13 -5 9 -50 11 -71 2z"/>
<path d="M3042 5031 c-7 -4 -10 -15 -7 -24 8 -20 -22 -37 -65 -37 -18 0 -29
-4 -25 -10 9 -14 115 -13 115 1 0 6 -7 9 -15 5 -20 -7 -19 11 1 22 9 5 14 18
12 30 -2 15 -7 19 -16 13z"/>
<path d="M3313 5017 c22 -18 22 -32 -3 -57 -11 -11 -15 -20 -10 -20 6 0 19 9
31 21 27 27 22 63 -11 67 -23 2 -24 1 -7 -11z"/>
<path d="M3192 4989 c-11 -17 -20 -20 -43 -15 -16 3 -29 2 -29 -2 0 -14 23
-32 40 -32 19 0 60 40 60 58 0 19 -14 14 -28 -9z"/>
<path d="M6645 4900 c-15 -17 -16 -23 -5 -33 10 -9 11 -9 6 1 -4 6 -3 12 2 12
5 0 12 9 15 20 6 25 5 25 -18 0z"/>
<path d="M3616 4845 c21 -97 159 -232 254 -249 19 -3 29 -3 23 0 -7 3 -13 14
-13 24 0 10 -10 20 -22 24 -36 9 -150 110 -216 191 -33 40 -33 40 -26 10z"/>
<path d="M6615 4850 c-3 -5 -1 -10 4 -10 6 0 11 5 11 10 0 6 -2 10 -4 10 -3 0
-8 -4 -11 -10z"/>
<path d="M2820 4846 c0 -2 9 -6 20 -9 11 -3 20 -1 20 4 0 5 -9 9 -20 9 -11 0
-20 -2 -20 -4z"/>
<path d="M2968 4843 c7 -3 16 -2 19 1 4 3 -2 6 -13 5 -11 0 -14 -3 -6 -6z"/>
<path d="M3020 4835 c10 -12 10 -19 2 -27 -16 -16 -15 -28 2 -28 17 0 28 52
13 62 -21 13 -30 9 -17 -7z"/>
<path d="M3158 4840 c-30 -4 -36 -8 -28 -20 7 -11 10 -11 10 -2 0 20 54 11 58
-10 2 -13 -1 -16 -12 -12 -9 3 -16 1 -16 -5 0 -6 7 -11 16 -11 10 0 14 -7 12
-22 -2 -18 -9 -23 -33 -22 -16 0 -38 4 -47 8 -11 5 -18 4 -18 -3 0 -14 76 -34
100 -26 17 5 20 16 20 65 0 64 -5 69 -62 60z"/>
<path d="M3305 4822 c-7 -19 -7 -19 15 -25 17 -4 40 16 40 36 0 11 -50 1 -55
-11z"/>
<path d="M2870 4796 c13 -36 -14 -62 -57 -57 -7 1 -13 -3 -13 -9 0 -19 41 -10
66 15 26 26 30 65 6 73 -9 3 -10 -2 -2 -22z"/>
<path d="M3270 4766 c0 -24 23 -56 40 -56 15 0 40 12 40 19 0 4 -12 7 -27 6
-23 0 -29 5 -31 28 -4 33 -22 36 -22 3z"/>
<path d="M2970 4730 c20 -13 90 -13 90 0 0 6 -24 10 -52 10 -38 0 -49 -3 -38
-10z"/>
<path d="M3242 4477 l5 -44 -61 -11 c-201 -38 -404 -254 -418 -447 l-3 -40
-47 3 -48 3 0 -36 0 -36 48 7 49 6 7 -57 c7 -65 45 -160 87 -222 17 -24 60
-67 97 -97 89 -71 163 -108 265 -130 25 -6 27 -9 27 -62 0 -47 3 -55 16 -50 9
3 22 6 30 6 10 0 14 13 14 49 l0 49 51 7 c63 9 190 72 256 128 103 87 174 204
196 318 l11 61 58 -4 c58 -4 58 -4 58 23 0 27 -2 28 -62 31 l-63 3 -7 54 c-7
64 -71 198 -123 258 -70 82 -217 162 -329 178 l-48 8 5 43 5 44 -41 0 -40 0 5
-43z m8 -182 l0 -73 -49 -7 c-41 -5 -56 -14 -99 -58 -54 -56 -98 -129 -108
-182 -3 -19 -12 -36 -19 -39 -7 -2 -47 -2 -89 1 -89 7 -89 7 -53 105 61 169
211 309 352 328 27 3 53 5 58 3 4 -2 7 -37 7 -78z m146 69 c167 -38 285 -148
344 -319 11 -32 20 -71 20 -87 l0 -28 -89 0 -88 0 -7 41 c-13 82 -63 152 -148
209 -33 22 -71 40 -84 40 -29 0 -32 6 -36 93 -4 77 -9 74 88 51z m-144 -313
l-3 -121 -105 0 c-98 0 -104 1 -104 20 0 37 28 89 77 141 42 46 118 94 133 84
3 -2 4 -57 2 -124z m168 64 c64 -52 100 -107 100 -152 l0 -33 -110 0 -110 0 0
48 c0 27 3 83 6 124 l7 76 26 -9 c15 -5 51 -29 81 -54z m-421 -293 c6 -32 24
-79 40 -103 31 -50 106 -109 164 -130 21 -7 42 -18 46 -24 4 -5 5 -39 3 -74
l-4 -64 -49 6 c-70 9 -161 60 -239 137 -75 73 -103 120 -125 212 -24 103 -27
98 69 98 l83 0 12 -58z m251 -73 c0 -83 -4 -129 -10 -129 -16 0 -70 29 -107
57 -35 27 -77 105 -88 166 l-7 37 106 -1 106 -1 0 -129z m510 103 c0 -72 -64
-198 -138 -275 -59 -61 -120 -99 -205 -132 -105 -39 -107 -38 -107 48 l0 73
45 12 c84 22 201 163 220 265 l7 37 89 0 89 0 0 -28z m-235 -4 c-15 -50 -43
-105 -70 -136 -25 -30 -118 -92 -137 -92 -5 0 -8 56 -8 125 l0 125 111 0 c110
0 110 0 104 -22z"/>
<path d="M3205 4300 c-3 -5 -1 -10 4 -10 6 0 11 5 11 10 0 6 -2 10 -4 10 -3 0
-8 -4 -11 -10z"/>
<path d="M6690 4431 c0 -23 12 -40 52 -75 l53 -46 1168 0 c968 0 1173 2 1201
14 33 14 96 81 96 102 0 6 -9 14 -20 17 -15 4 -30 -4 -52 -29 -18 -19 -48 -39
-69 -44 -51 -14 -2227 -14 -2278 0 -23 6 -52 26 -74 50 -44 49 -77 54 -77 11z"/>
<path d="M7710 4444 c0 -34 69 -81 89 -61 8 8 14 8 22 0 6 -6 23 -8 42 -3 18
4 41 5 52 4 11 -2 63 -5 115 -7 52 -3 103 -8 112 -12 12 -5 31 6 65 39 l48 46
-272 -1 c-150 0 -273 -2 -273 -5z"/>
<path d="M6498 4003 c-3 -34 -8 -40 -50 -61 l-47 -24 -28 22 -28 22 -22 -29
c-27 -33 -29 -58 -6 -71 12 -7 14 -17 9 -43 -11 -55 -32 -79 -71 -79 l-34 0
16 -45 c12 -36 19 -45 38 -45 51 0 73 -84 34 -126 -25 -27 -19 -51 18 -78 25
-19 26 -19 42 2 16 21 18 21 69 6 43 -13 52 -19 52 -39 0 -49 8 -55 76 -55
l64 0 0 44 c0 52 10 58 102 61 47 1 61 6 77 26 25 30 25 32 1 54 -11 10 -20
31 -20 46 0 24 8 32 43 50 76 39 78 72 7 123 -54 39 -63 65 -33 98 16 17 16
22 3 45 -23 40 -48 52 -64 31 -16 -22 -38 -23 -76 -3 -34 18 -50 43 -50 79 0
25 -2 26 -59 26 l-60 0 -3 -37z m117 -166 c107 -60 114 -215 13 -277 -66 -40
-141 -20 -194 51 -22 29 -25 41 -21 85 7 74 30 110 85 138 58 31 67 31 117 3z"/>
<path d="M2783 3233 c-18 -3 -23 -11 -23 -38 0 -37 -15 -54 -33 -36 -21 21
-54 11 -101 -30 -62 -55 -72 -75 -51 -99 25 -28 12 -48 -32 -52 -38 -3 -38 -3
-45 -58 -4 -30 -10 -67 -13 -82 -4 -28 -4 -28 49 -28 45 0 54 -3 59 -20 3 -13
-4 -31 -19 -49 -13 -16 -24 -36 -24 -44 0 -17 87 -105 113 -113 10 -3 26 1 36
10 38 34 61 15 61 -49 0 -32 2 -34 43 -40 23 -4 60 -5 82 -3 39 3 40 4 45 48
l5 45 52 -3 c50 -2 54 0 99 42 49 48 51 55 23 123 -16 39 -12 44 39 45 49 0
62 23 62 108 l0 59 -55 6 c-30 4 -58 11 -61 16 -3 5 7 21 21 35 24 24 25 29
14 50 -14 26 -96 94 -113 94 -7 0 -22 -7 -34 -16 -30 -21 -50 -5 -54 44 l-3
37 -60 1 c-33 1 -70 0 -82 -3z m123 -72 c12 -59 79 -97 91 -51 8 29 35 25 68
-10 l28 -30 -18 -34 c-27 -50 -11 -82 47 -93 42 -8 43 -9 46 -52 4 -48 -6 -61
-49 -61 -19 0 -33 -10 -51 -38 l-25 -37 31 -29 31 -28 -38 -34 c-40 -37 -62
-43 -71 -19 -5 15 -36 21 -36 7 0 -4 -13 -13 -30 -19 -24 -9 -30 -17 -30 -41
0 -34 -14 -42 -70 -42 -39 0 -39 0 -42 43 -3 39 -6 43 -42 55 -38 12 -41 12
-61 -14 l-22 -27 -31 46 c-37 53 -37 54 -15 79 16 18 16 22 -6 63 -17 31 -30
44 -52 49 -31 6 -34 18 -20 81 6 27 10 30 46 30 36 0 40 2 43 28 2 17 -3 36
-13 47 -13 14 -14 22 -4 44 7 14 23 33 36 42 23 14 26 14 42 0 20 -18 54 -21
82 -6 13 8 19 21 19 45 l0 35 55 0 c53 0 56 -1 61 -29z"/>
<path d="M2763 3008 c-18 -13 -39 -37 -48 -55 -19 -39 -19 -113 -1 -158 40
-95 183 -100 252 -10 54 72 31 185 -46 226 -48 26 -117 25 -157 -3z m127 -43
c84 -43 78 -144 -10 -190 -42 -22 -68 -18 -100 13 -56 56 -49 135 15 174 36
22 57 23 95 3z"/>
<path d="M6770 3226 c0 -9 5 -16 10 -16 6 0 10 4 10 9 0 6 -4 13 -10 16 -5 3
-10 -1 -10 -9z"/>
<path d="M1910 2951 c0 -32 -6 -43 -34 -65 -39 -29 -61 -33 -70 -11 -7 20 -40
19 -56 0 -11 -13 -10 -22 3 -51 10 -19 17 -38 17 -43 0 -5 -20 -16 -44 -25
-24 -9 -47 -23 -49 -30 -8 -21 25 -75 53 -89 22 -11 25 -19 25 -67 0 -49 3
-55 30 -71 16 -10 49 -21 72 -25 48 -7 54 -13 63 -64 5 -34 6 -35 50 -33 25 1
48 2 53 2 4 1 7 23 7 50 l0 49 38 5 c24 3 43 -1 55 -11 15 -13 21 -13 42 -2
33 18 39 43 21 79 -19 36 -21 70 -3 76 6 2 29 6 49 10 44 7 55 30 38 81 -9 26
-19 36 -41 41 -41 8 -56 29 -37 51 29 33 28 41 -3 76 -36 42 -42 43 -69 16
-42 -42 -80 -19 -80 47 l0 43 -65 0 -65 0 0 -39z m111 -148 c68 -27 90 -109
46 -174 -56 -83 -156 -77 -202 11 -31 61 -4 138 58 165 41 18 49 18 98 -2z"/>
<path d="M5045 2260 c-110 -8 -142 -18 -189 -56 -46 -39 -146 -155 -164 -191
-15 -31 -14 -33 10 -65 36 -47 61 -101 93 -198 33 -101 65 -168 93 -193 16
-15 18 -24 11 -50 -5 -18 -27 -160 -49 -316 -33 -228 -38 -286 -28 -293 16
-11 593 -6 604 5 4 4 0 58 -9 120 -31 198 -58 370 -71 443 -11 64 -10 74 5 92
9 12 36 67 59 124 23 57 60 139 81 183 50 106 53 124 32 157 -54 80 -170 211
-199 223 -43 18 -158 24 -279 15z"/>
</g>
</svg>
